<?xml version="1.0" standalone="no"?>
<!DOCTYPE svg PUBLIC "-//W3C//DTD SVG 20010904//EN"
 "http://www.w3.org/TR/2001/REC-SVG-20010904/DTD/svg10.dtd">
<svg version="1.0" xmlns="http://www.w3.org/2000/svg"
 width="500.000000pt" height="500.000000pt" viewBox="0 0 500.000000 500.000000"
 preserveAspectRatio="xMidYMid meet">
<metadata>
Created by potrace 1.11, written by Peter Selinger 2001-2013
</metadata>
<g transform="translate(0.000000,500.000000) scale(0.100000,-0.100000)"
fill="#000000" stroke="none">
<path d="M1685 4381 c-81 -21 -164 -99 -184 -173 -9 -32 -11 -467 -9 -1728 l3
-1685 22 -41 c46 -86 127 -134 227 -134 100 1 179 50 229 144 22 40 22 48 25
516 l3 475 47 31 c26 17 59 38 73 48 l27 17 494 -594 c387 -463 504 -597 534
-612 49 -24 150 -31 200 -15 47 16 119 82 147 135 31 60 30 156 -3 217 -14 26
-229 293 -478 592 -250 300 -454 548 -454 553 -1 4 200 141 447 303 437 288
449 296 479 350 26 47 30 64 30 125 0 107 -55 191 -149 231 -44 18 -146 22
-186 6 -14 -6 -290 -184 -613 -396 -323 -212 -589 -386 -592 -386 -2 0 -4 404
-4 898 0 988 2 959 -61 1035 -56 68 -174 109 -254 88z"/>
</g>
</svg>
